<mxfile host="app.diagrams.net" modified="2023-11-15T02:53:03.758Z" agent="Mozilla/5.0 (Windows NT 10.0; Win64; x64) AppleWebKit/537.36 (KHTML, like Gecko) Chrome/119.0.0.0 Safari/537.36" etag="x-hje7cml_WPyWlDQqak" version="22.1.1" type="github">
  <diagram name="第 1 页" id="GnDO6N3DueWJBPkfXjhA">
    <mxGraphModel dx="1434" dy="746" grid="0" gridSize="10" guides="1" tooltips="1" connect="1" arrows="1" fold="1" page="0" pageScale="1" pageWidth="827" pageHeight="1169" math="0" shadow="0">
      <root>
        <mxCell id="0" />
        <mxCell id="1" parent="0" />
        <mxCell id="sUnTjPVfXL3tDDWwX9w4-1" value="" style="rounded=0;whiteSpace=wrap;html=1;strokeColor=#8F8F8F;" vertex="1" parent="1">
          <mxGeometry x="43" y="83" width="656" height="456" as="geometry" />
        </mxCell>
        <mxCell id="sUnTjPVfXL3tDDWwX9w4-2" value="" style="rounded=0;whiteSpace=wrap;html=1;strokeColor=#8F8F8F;" vertex="1" parent="1">
          <mxGeometry x="43" y="83" width="116" height="455" as="geometry" />
        </mxCell>
        <mxCell id="sUnTjPVfXL3tDDWwX9w4-3" value="" style="rounded=0;whiteSpace=wrap;html=1;strokeColor=#8F8F8F;" vertex="1" parent="1">
          <mxGeometry x="583" y="84" width="116" height="455" as="geometry" />
        </mxCell>
        <mxCell id="sUnTjPVfXL3tDDWwX9w4-4" value="三方服务" style="text;html=1;strokeColor=none;fillColor=none;align=center;verticalAlign=middle;whiteSpace=wrap;rounded=0;" vertex="1" parent="1">
          <mxGeometry x="69" y="94" width="60" height="30" as="geometry" />
        </mxCell>
        <mxCell id="sUnTjPVfXL3tDDWwX9w4-5" value="辅助服务" style="text;html=1;strokeColor=none;fillColor=none;align=center;verticalAlign=middle;whiteSpace=wrap;rounded=0;" vertex="1" parent="1">
          <mxGeometry x="611" y="94" width="60" height="30" as="geometry" />
        </mxCell>
        <mxCell id="sUnTjPVfXL3tDDWwX9w4-6" value="核心业务" style="rounded=0;whiteSpace=wrap;html=1;strokeColor=#8F8F8F;" vertex="1" parent="1">
          <mxGeometry x="159" y="84" width="424" height="28" as="geometry" />
        </mxCell>
        <mxCell id="sUnTjPVfXL3tDDWwX9w4-7" value="" style="rounded=1;whiteSpace=wrap;html=1;" vertex="1" parent="1">
          <mxGeometry x="178" y="132" width="118" height="223" as="geometry" />
        </mxCell>
        <mxCell id="sUnTjPVfXL3tDDWwX9w4-8" value="" style="rounded=1;whiteSpace=wrap;html=1;" vertex="1" parent="1">
          <mxGeometry x="316" y="132" width="118" height="223" as="geometry" />
        </mxCell>
        <mxCell id="sUnTjPVfXL3tDDWwX9w4-9" value="" style="rounded=1;whiteSpace=wrap;html=1;" vertex="1" parent="1">
          <mxGeometry x="453" y="132" width="118" height="223" as="geometry" />
        </mxCell>
        <mxCell id="sUnTjPVfXL3tDDWwX9w4-10" value="" style="rounded=1;whiteSpace=wrap;html=1;" vertex="1" parent="1">
          <mxGeometry x="168" y="396" width="409" height="135" as="geometry" />
        </mxCell>
        <mxCell id="sUnTjPVfXL3tDDWwX9w4-11" value="客服业务" style="text;html=1;strokeColor=none;fillColor=none;align=center;verticalAlign=middle;whiteSpace=wrap;rounded=0;" vertex="1" parent="1">
          <mxGeometry x="207" y="142" width="60" height="30" as="geometry" />
        </mxCell>
        <mxCell id="sUnTjPVfXL3tDDWwX9w4-12" value="统计业务" style="text;html=1;strokeColor=none;fillColor=none;align=center;verticalAlign=middle;whiteSpace=wrap;rounded=0;" vertex="1" parent="1">
          <mxGeometry x="347" y="142" width="60" height="30" as="geometry" />
        </mxCell>
        <mxCell id="sUnTjPVfXL3tDDWwX9w4-13" value="智能外呼" style="text;html=1;strokeColor=none;fillColor=none;align=center;verticalAlign=middle;whiteSpace=wrap;rounded=0;" vertex="1" parent="1">
          <mxGeometry x="490" y="142" width="60" height="30" as="geometry" />
        </mxCell>
        <mxCell id="sUnTjPVfXL3tDDWwX9w4-14" value="AI机器人" style="rounded=1;whiteSpace=wrap;html=1;" vertex="1" parent="1">
          <mxGeometry x="189" y="187" width="96" height="31" as="geometry" />
        </mxCell>
        <mxCell id="sUnTjPVfXL3tDDWwX9w4-15" value="人工客服" style="rounded=1;whiteSpace=wrap;html=1;" vertex="1" parent="1">
          <mxGeometry x="189" y="234" width="96" height="31" as="geometry" />
        </mxCell>
        <mxCell id="sUnTjPVfXL3tDDWwX9w4-16" value="问题库" style="rounded=1;whiteSpace=wrap;html=1;" vertex="1" parent="1">
          <mxGeometry x="189" y="279" width="96" height="31" as="geometry" />
        </mxCell>
        <mxCell id="sUnTjPVfXL3tDDWwX9w4-17" value="问题匹配统计" style="rounded=1;whiteSpace=wrap;html=1;" vertex="1" parent="1">
          <mxGeometry x="327" y="187" width="96" height="31" as="geometry" />
        </mxCell>
        <mxCell id="sUnTjPVfXL3tDDWwX9w4-18" value="服务记录统计" style="rounded=1;whiteSpace=wrap;html=1;" vertex="1" parent="1">
          <mxGeometry x="327" y="234" width="96" height="31" as="geometry" />
        </mxCell>
        <mxCell id="sUnTjPVfXL3tDDWwX9w4-19" value="人工服务统计" style="rounded=1;whiteSpace=wrap;html=1;" vertex="1" parent="1">
          <mxGeometry x="327" y="279" width="96" height="31" as="geometry" />
        </mxCell>
        <mxCell id="sUnTjPVfXL3tDDWwX9w4-20" value="定时呼叫" style="rounded=1;whiteSpace=wrap;html=1;" vertex="1" parent="1">
          <mxGeometry x="464" y="187" width="96" height="31" as="geometry" />
        </mxCell>
        <mxCell id="sUnTjPVfXL3tDDWwX9w4-21" value="管理被呼叫人员" style="rounded=1;whiteSpace=wrap;html=1;" vertex="1" parent="1">
          <mxGeometry x="464" y="234" width="96" height="31" as="geometry" />
        </mxCell>
        <mxCell id="sUnTjPVfXL3tDDWwX9w4-22" value="基础服务" style="text;html=1;strokeColor=none;fillColor=none;align=center;verticalAlign=middle;whiteSpace=wrap;rounded=0;" vertex="1" parent="1">
          <mxGeometry x="341" y="401" width="60" height="30" as="geometry" />
        </mxCell>
        <mxCell id="sUnTjPVfXL3tDDWwX9w4-24" value="电话客服配置" style="rounded=1;whiteSpace=wrap;html=1;" vertex="1" parent="1">
          <mxGeometry x="205" y="429" width="71" height="31" as="geometry" />
        </mxCell>
        <mxCell id="sUnTjPVfXL3tDDWwX9w4-27" value="坐席工作时段配置" style="rounded=1;whiteSpace=wrap;html=1;" vertex="1" parent="1">
          <mxGeometry x="289" y="429" width="71" height="31" as="geometry" />
        </mxCell>
        <mxCell id="sUnTjPVfXL3tDDWwX9w4-28" value="私有库配置" style="rounded=1;whiteSpace=wrap;html=1;" vertex="1" parent="1">
          <mxGeometry x="376" y="429" width="71" height="31" as="geometry" />
        </mxCell>
        <mxCell id="sUnTjPVfXL3tDDWwX9w4-29" value="用户、角色管理" style="rounded=1;whiteSpace=wrap;html=1;" vertex="1" parent="1">
          <mxGeometry x="464" y="429" width="71" height="31" as="geometry" />
        </mxCell>
        <mxCell id="sUnTjPVfXL3tDDWwX9w4-30" value="黑名单管理" style="rounded=1;whiteSpace=wrap;html=1;" vertex="1" parent="1">
          <mxGeometry x="206" y="472" width="71" height="31" as="geometry" />
        </mxCell>
        <mxCell id="sUnTjPVfXL3tDDWwX9w4-31" value="敏感词管理" style="rounded=1;whiteSpace=wrap;html=1;" vertex="1" parent="1">
          <mxGeometry x="290" y="472" width="71" height="31" as="geometry" />
        </mxCell>
        <mxCell id="sUnTjPVfXL3tDDWwX9w4-32" value="节假日管理" style="rounded=1;whiteSpace=wrap;html=1;" vertex="1" parent="1">
          <mxGeometry x="377" y="472" width="71" height="31" as="geometry" />
        </mxCell>
        <mxCell id="sUnTjPVfXL3tDDWwX9w4-33" value="链接配置" style="rounded=1;whiteSpace=wrap;html=1;" vertex="1" parent="1">
          <mxGeometry x="465" y="472" width="71" height="31" as="geometry" />
        </mxCell>
        <mxCell id="sUnTjPVfXL3tDDWwX9w4-34" value="外呼语音存档" style="rounded=1;whiteSpace=wrap;html=1;" vertex="1" parent="1">
          <mxGeometry x="464" y="279" width="96" height="31" as="geometry" />
        </mxCell>
        <mxCell id="sUnTjPVfXL3tDDWwX9w4-35" value="CRM服务" style="rounded=1;whiteSpace=wrap;html=1;" vertex="1" parent="1">
          <mxGeometry x="53" y="144" width="96" height="35" as="geometry" />
        </mxCell>
        <mxCell id="sUnTjPVfXL3tDDWwX9w4-36" value="短信" style="rounded=1;whiteSpace=wrap;html=1;" vertex="1" parent="1">
          <mxGeometry x="53" y="199" width="96" height="35" as="geometry" />
        </mxCell>
        <mxCell id="sUnTjPVfXL3tDDWwX9w4-37" value="IP归属" style="rounded=1;whiteSpace=wrap;html=1;" vertex="1" parent="1">
          <mxGeometry x="53" y="254" width="96" height="35" as="geometry" />
        </mxCell>
        <mxCell id="sUnTjPVfXL3tDDWwX9w4-38" value="监控预警" style="rounded=1;whiteSpace=wrap;html=1;" vertex="1" parent="1">
          <mxGeometry x="593" y="142" width="96" height="35" as="geometry" />
        </mxCell>
        <mxCell id="sUnTjPVfXL3tDDWwX9w4-39" value="Job组件" style="rounded=1;whiteSpace=wrap;html=1;" vertex="1" parent="1">
          <mxGeometry x="593" y="195" width="96" height="35" as="geometry" />
        </mxCell>
        <mxCell id="sUnTjPVfXL3tDDWwX9w4-40" value="短信组件" style="rounded=1;whiteSpace=wrap;html=1;" vertex="1" parent="1">
          <mxGeometry x="593" y="248" width="96" height="35" as="geometry" />
        </mxCell>
        <mxCell id="sUnTjPVfXL3tDDWwX9w4-41" value="通讯加密组件" style="rounded=1;whiteSpace=wrap;html=1;" vertex="1" parent="1">
          <mxGeometry x="593" y="301" width="96" height="35" as="geometry" />
        </mxCell>
      </root>
    </mxGraphModel>
  </diagram>
</mxfile>
